<?xml version="1.0" encoding="utf-8"?>
<!-- Generator: Adobe Illustrator 18.1.1, SVG Export Plug-In . SVG Version: 6.00 Build 0)  -->
<svg version="1.1" id="Layer_1" xmlns="http://www.w3.org/2000/svg" xmlns:xlink="http://www.w3.org/1999/xlink" x="0px" y="0px"
	 viewBox="0 116 607 547" enable-background="new 0 116 607 547" xml:space="preserve">
<g>
	
		<image overflow="visible" opacity="0.75" width="601" height="532" xlink:href="606600A07014D3D.png"  transform="matrix(1 0 0 1 7 126)">
	</image>
	<g>
		<g>
			<line fill="none" stroke="#AF8400" stroke-width="0.3516" x1="39.2" y1="632.2" x2="600.4" y2="632.2"/>
			<g>
				<path fill="#AF8400" d="M109.5,132.2v220.9c0,12.2,1.2,22,3.7,30c2.4,8,6.1,15.9,11.6,24.5H56.9c5.5-9.2,9.8-18.4,12.2-26.9
					c2.4-8.6,3.7-19.6,3.7-33v-4.9V181.2H12.2c9.8-3.1,22.6-9.2,38.6-17.1C66.7,156.1,86.3,145.7,109.5,132.2z"/>
				<path fill="#AF8400" d="M328,157.3c-6.7-1.2-12.9-2.4-18.4-3.1c-5.5-0.6-10.4-1.2-14.7-1.2c-31.2,0-55.1,8.6-71.6,26.3
					S197.7,224,194,262c9.8-4.9,19-8,28.8-10.4c9.8-2.4,19.6-3.7,30-3.7c22.6,0,41.6,7.3,56.3,22c14.7,14.7,22,33.7,22,56.9
					c0,25.7-8.6,47.1-25.1,63c-16.5,15.9-37.9,23.9-64.9,23.9c-29.4,0-52-9.8-67.3-30s-23.3-49.6-23.3-88.1
					c0-48.3,10.4-87.5,31.2-116.9s47.7-44.1,81.4-44.1c13.5,0,25.7,1.8,36.1,5.5C309.7,143.9,319.5,149.4,328,157.3z M192.8,273.6
					c-0.6,4.9-0.6,9.8-0.6,14.7c0,4.3,0,8.6,0,12.2c0,34.3,4.3,59.4,12.2,75.3c8,15.9,21.4,23.3,39.2,23.3
					c14.7,0,26.3-5.5,34.3-17.1c8-11,11.6-27.5,11.6-49c0-21.4-4.9-37.9-15.3-48.3c-9.8-11-25.1-15.9-45.3-15.9
					c-4.9,0-10.4,0.6-16.5,1.2C206.2,269.9,199.5,271.8,192.8,273.6z"/>
				<path fill="#AF8400" d="M360.5,271.8c0-43.5,8.6-77.1,25.1-101.6c17.1-24.5,40.4-36.7,70.4-36.7c27.5,0,49,12.2,64.3,36.7
					c15.3,24.5,23.3,58.8,23.3,103.4c0,44.1-8.6,78.9-25.1,103.4c-16.5,24.5-39.8,36.7-69.8,36.7c-28.8,0-50.8-12.2-65.5-36.7
					C367.8,353.2,360.5,318.3,360.5,271.8z M451.7,152.4c-17.1,0-29.4,10.4-37.9,30.6s-12.2,52-12.2,94.2c0,41,3.7,71,11.6,90.6
					c8,19.6,20.2,28.8,36.1,28.8c17.1,0,30-9.8,38.6-30c9.8-19.6,14.1-49,14.1-86.9c0-45.3-3.7-77.7-11.6-97.3
					C482.3,162.2,469.4,152.4,451.7,152.4z"/>
			</g>
			<g>
				<path fill="#AF8400" d="M158.5,552.1v32.4c0,1.8,0,3.1,0.6,4.3c0.6,1.2,1.2,2.4,1.8,3.7h-9.8c0.6-1.2,1.2-2.4,1.8-3.7
					c0.6-1.2,0.6-3.1,0.6-4.9v-0.6v-23.9h-9.2c1.2-0.6,3.1-1.2,5.5-2.4C152.4,555.1,154.8,553.9,158.5,552.1z"/>
				<path fill="#AF8400" d="M195.8,569.8c3.7,1.8,6.1,3.7,7.3,5.5c1.2,1.8,1.8,3.7,1.8,6.1c0,3.7-1.2,6.1-3.7,8
					c-2.4,1.8-5.5,3.1-9.8,3.1c-3.7,0-6.1-1.2-8.6-3.1s-3.1-4.3-3.1-7.3c0-2.4,0.6-4.3,2.4-6.1s3.7-3.1,6.7-4.3
					c-2.4-1.2-4.3-3.1-5.5-4.3c-1.2-1.8-1.8-3.7-1.8-6.1c0-3.1,1.2-5.5,3.1-7.3c1.8-1.8,4.9-2.4,8-2.4c3.1,0,6.1,0.6,8,2.4
					c1.8,1.2,3.1,3.7,3.1,6.1c0,1.8-0.6,3.7-1.8,5.5C200.1,568,198.3,569.2,195.8,569.8z M190.9,572.9c-1.8,1.2-3.7,3.1-4.3,4.3
					c-1.2,1.8-1.2,3.1-1.2,4.9c0,2.4,0.6,4.3,1.8,6.1c1.2,1.2,3.1,2.4,5.5,2.4s4.3-0.6,5.5-1.8c1.2-1.2,2.4-3.1,2.4-5.5
					c0-1.8-0.6-3.1-1.8-4.9C197.7,577.2,194.6,575.3,190.9,572.9z M194.6,569.2c1.2-1.2,2.4-2.4,3.1-3.7c0.6-1.2,1.2-3.1,1.2-4.3
					c0-1.8-0.6-3.7-1.8-4.9c-1.2-1.2-2.4-1.8-4.3-1.8s-3.7,0.6-4.3,1.8c-1.2,1.2-1.8,2.4-1.8,4.3c0,1.8,0.6,3.1,1.8,4.9
					C189.7,566.7,191.6,568,194.6,569.2z"/>
				<path fill="#AF8400" d="M225.2,553.3H246v4.9h-18.4v11c1.2-0.6,2.4-0.6,3.7-0.6c1.2,0,2.4-0.6,3.7-0.6c3.7,0,6.7,1.2,9.2,3.1
					c2.4,2.4,3.7,4.9,3.7,8.6c0,4.3-1.2,7.3-3.7,9.8c-2.4,2.4-6.1,3.7-11,3.7c-1.2,0-3.1,0-4.3,0c-1.2,0-3.1-0.6-4.3-0.6v-7.3
					l6.1,4.9c0.6,0.6,1.2,0.6,1.8,1.2c0.6,0,1.2,0.6,1.8,0.6c2.4,0,4.3-1.2,6.1-3.1c1.8-1.8,2.4-4.3,2.4-7.3s-0.6-5.5-2.4-7.3
					c-1.8-1.8-4.3-2.4-7.3-2.4c-0.6,0-1.2,0-2.4,0s-2.4,0.6-4.3,0.6v-19H225.2z"/>
				<path fill="#AF8400" d="M268.1,553.3h20.8v4.9h-18.4v11c1.2-0.6,2.4-0.6,3.7-0.6s2.4-0.6,3.7-0.6c3.7,0,6.7,1.2,9.2,3.1
					c2.4,2.4,3.7,4.9,3.7,8.6c0,4.3-1.2,7.3-3.7,9.8c-2.4,2.4-6.1,3.7-11,3.7c-1.2,0-3.1,0-4.3,0c-1.2,0-3.1-0.6-4.3-0.6v-7.3
					l6.1,4.9c0.6,0.6,1.2,0.6,1.8,1.2c0.6,0,1.2,0.6,1.8,0.6c2.4,0,4.3-1.2,6.1-3.1s2.4-4.3,2.4-7.3s-0.6-5.5-2.4-7.3
					c-1.8-1.8-4.3-2.4-7.3-2.4c-0.6,0-1.2,0-2.4,0c-1.2,0-2.4,0.6-4.3,0.6v-19H268.1z"/>
			</g>
			<g>
				<path fill="#AF8400" d="M320.7,576.5h30v3.7h-30V576.5z"/>
			</g>
			<g>
				<path fill="#AF8400" d="M382.5,587.6h12.2c1.2,0,1.8-0.6,3.1-1.2c1.2-0.6,2.4-1.8,3.7-3.1l-1.2,8.6h-25.1
					c6.7-7.3,11.6-12.9,14.7-17.1s4.3-8,4.3-11.6c0-2.4-0.6-4.9-1.8-6.1c-1.2-1.8-3.1-2.4-4.9-2.4c-0.6,0-1.2,0-1.8,0.6
					c-0.6,0-1.2,0.6-1.8,1.2l-5.5,4.3v-7.3c1.8-0.6,3.7-0.6,5.5-1.2c1.8,0,3.7-0.6,4.9-0.6c3.7,0,6.7,0.6,9.2,2.4
					c2.4,1.8,3.1,4.3,3.1,7.3s-1.2,6.1-3.7,9.8C393.5,575.9,388.6,581.4,382.5,587.6z"/>
				<path fill="#AF8400" d="M411.3,572.3c0-6.1,1.2-11,3.7-14.7c2.4-3.7,6.1-5.5,10.4-5.5c4.3,0,7.3,1.8,9.2,5.5
					c2.4,3.7,3.1,8.6,3.1,15.3s-1.2,11.6-3.7,15.3c-2.4,3.7-6.1,5.5-10.4,5.5c-4.3,0-7.3-1.8-9.8-5.5
					C412.5,583.9,411.3,579,411.3,572.3z M424.7,554.5c-2.4,0-4.3,1.2-5.5,4.3c-1.2,3.1-1.8,7.3-1.8,13.5s0.6,10.4,1.8,13.5
					c1.2,3.1,3.1,4.3,5.5,4.3c2.4,0,4.3-1.2,5.5-4.3c1.2-3.1,1.8-7.3,1.8-12.9c0-6.7-0.6-11-1.8-14.1
					C429,556.3,427.2,554.5,424.7,554.5z"/>
				<path fill="#AF8400" d="M462.7,552.1v32.4c0,1.8,0,3.1,0.6,4.3c0.6,1.2,1.2,2.4,1.8,3.7h-9.8c0.6-1.2,1.2-2.4,1.8-3.7
					c0.6-1.2,0.6-3.1,0.6-4.9v-0.6v-23.9h-9.2c1.2-0.6,3.1-1.2,5.5-2.4C456.6,555.1,459,553.9,462.7,552.1z"/>
				<path fill="#AF8400" d="M484.7,553.3h20.8v4.9h-18.4v11c1.2-0.6,2.4-0.6,3.7-0.6c1.2,0,2.4-0.6,3.7-0.6c3.7,0,6.7,1.2,9.2,3.1
					c2.4,2.4,3.7,4.9,3.7,8.6c0,4.3-1.2,7.3-3.7,9.8s-6.1,3.7-11,3.7c-1.2,0-3.1,0-4.3,0c-1.2,0-3.1-0.6-4.3-0.6v-7.3l6.1,4.9
					c0.6,0.6,1.2,0.6,1.8,1.2c0.6,0,1.2,0.6,1.8,0.6c2.4,0,4.3-1.2,6.1-3.1c1.8-1.8,2.4-4.3,2.4-7.3s-0.6-5.5-2.4-7.3
					c-1.8-1.8-4.3-2.4-7.3-2.4c-0.6,0-1.2,0-2.4,0c-1.2,0-2.4,0.6-4.3,0.6v-19H484.7z"/>
			</g>
			<line fill="none" stroke="#AF8400" stroke-width="0.3516" x1="123.6" y1="519" x2="600.4" y2="519"/>
			<g>
				<path fill="#AF8400" d="M75.9,492.1c1.2,1.2,4.9,0.6,8.6-1.2c8.6-4.3,16.5-10.4,28.2-19.6c18.4-14.1,28.8-23.3,41-33
					c3.1-2.4,5.5-4.3,11-4.3c6.7,0,9.2,0.6,5.5,5.5c-6.1,8-14.7,19.6-22.6,29.4c-6.7,9.2-21.4,28.2-50.2,67.3
					c-33,45.3-44.1,55.7-67.3,96.7c-2.4,4.3-3.1,6.7-1.8,7.3c1.2,0.6,3.7-0.6,5.5-3.1c3.7-4.3,17.1-23.3,27.5-38.6
					c8.6-12.2,23.3-33,42.8-58.1c15.3-19.6,32.4-39.2,48.3-55.1c5.5-5.5,18.4-17.1,23.3-22c1.2-1.2,4.3-3.7,5.5-2.4
					c0.6,1.2-1.2,3.1-4.3,6.1c-4.9,4.3-12.9,12.2-22,21.4c-14.7,14.7-32.4,35.5-47.7,55.1c-17.7,23.3-33,45.3-45.3,61.8
					c-12.2,17.1-22.6,33-32.4,41.6c-3.1,3.1-7.3,5.5-11,4.9c-3.1,0.6-6.1-2.4-6.1-7.3c0-6.7,8.6-20.2,15.3-31.8
					C41,591.2,52,575.3,78.9,538.6c18.4-25.1,36.1-50.2,59.4-81.4l-0.6-0.6c-7.3,6.7-20.8,16.5-30.6,24.5
					c-15.3,11.6-29.4,20.8-40.4,20.8c-8,0-12.2-4.3-12.2-11c0.6-4.9,2.4-9.8,6.7-15.3c6.1-8.6,16.5-20.2,26.9-30.6
					c8-7.3,10.4-9.2,17.1-9.2c8,0,8.6,1.2,4.3,6.1c-4.9,5.5-12.2,14.7-19.6,23.3c-6.7,8-11.6,15.3-14.1,20.2
					C74.7,488.4,74.7,490.9,75.9,492.1z M233.8,482.9c7.3-4.9,15.9-11.6,23.3-18.4c2.4-1.8,3.7-2.4,4.3-1.2c0.6,1.2-0.6,3.1-3.1,4.9
					c-4.9,4.3-17.1,14.7-23.9,19c-15.9,10.4-30,15.3-42.8,15.3c-14.1,0-20.2-5.5-20.2-15.3c0.6-7.3,3.7-14.7,11.6-23.3l-0.6-0.6
					c-1.2,1.2-5.5,4.9-7.3,6.7c-1.8,1.2-3.1,1.8-3.7,1.2c-0.6-1.2,0.6-2.4,2.4-4.3c4.9-4.3,8.6-7.3,14.1-11.6
					c4.3-3.1,11.6-7.3,18.4-11.6c11-5.5,22.6-10.4,32.4-10.4h0c8.6,0,11.6,5.5,11,10.4c-0.6,9.8-12.9,17.1-24.5,23.3
					c-11,5.5-23.9,9.8-32.4,12.2c-1.2,3.1-2.4,6.7-2.4,8.6c0,5.5,3.1,8.6,8.6,8.6C204.4,497,217.3,493.9,233.8,482.9z M220.9,463.9
					c9.2-6.7,15.3-14.7,15.3-19.6c0.6-3.7-1.2-5.5-4.3-5.5c-3.7,0-9.2,3.7-16.5,11c-6.1,5.5-15.3,17.7-20.2,25.1
					C202.6,473.1,213,469.4,220.9,463.9z M353.1,434.6c8-0.6,8.6,1.2,4.9,6.1c-4.9,5.5-13.5,15.3-21.4,25.1
					c-4.9,6.1-9.8,12.2-13.5,18.4c-2.4,4.3-2.4,7.3-1.2,8.6c1.8,1.2,5.5,0,8.6-1.2c3.7-1.8,11-6.7,17.1-11.6
					c8-6.7,14.1-11.6,18.4-15.3c2.4-1.8,4.3-3.7,5.5-2.4c1.2,1.2-0.6,3.1-4.9,6.7c-4.9,4.3-14.1,12.2-21.4,18.4
					s-20.2,15.3-32.4,15.3c-7.3,0-10.4-3.7-11-8c-0.6-4.3,1.8-9.2,5.5-13.5l-0.6-0.6c-9.8,8.6-27.5,21.4-41.6,22
					c-8.6,0.6-17.1-3.1-15.3-15.3c0.6-5.5,3.7-11.6,10.4-19.6l-0.6-0.6c-1.2,1.2-2.4,2.4-4.9,4.3c-1.2,1.2-2.4,1.8-3.7,1.2
					c-0.6-1.2,1.2-3.7,5.5-7.3c1.2-1.2,7.3-6.7,11.6-9.2c3.7-2.4,10.4-6.7,17.1-10.4c14.7-7.3,28.2-12.2,37.9-10.4
					c7.3,1.2,10.4,8,8,14.7C340.3,439.5,347,434.6,353.1,434.6z M287,462.1c-15.3,15.3-22,25.1-21.4,30c0.6,2.4,2.4,3.7,4.9,3.7
					c7.3,0,21.4-8.6,31.8-17.7c12.2-10.4,25.7-26.9,26.3-33c0.6-4.9-2.4-6.7-6.7-6.7C314.6,438.2,300.5,448.6,287,462.1z
					 M400.9,449.2c2.4-3.7,3.7-5.5,2.4-6.7c-1.2-1.2-3.7-0.6-5.5,0.6c-4.3,2.4-10.4,6.7-14.7,10.4c-4.9,4.3-11,9.2-16.5,14.7
					c-3.7,3.7-5.5,4.3-6.7,3.7c-0.6-1.2,1.2-3.1,5.5-7.3c4.3-4.3,12.9-12.2,19.6-17.1c10.4-8,17.7-12.2,25.7-12.2
					c7.3,0,9.2,4.3,9.2,8.6c0,4.3-3.1,9.2-8,16.5c-3.1,4.3-8.6,11-11.6,15.3l0.6,0.6c4.3-4.3,14.7-14.1,23.3-21.4
					c6.1-4.9,11-8.6,17.1-12.9c1.2-3.7,6.1-6.7,11-7.3c3.1-0.6,7.3,0.6,8.6,1.8c1.2,1.2,1.2,4.3-3.7,8c-3.1,2.4-6.7,4.3-7.3,7.3
					c-0.6,7.3,6.7,9.8,16.5,9.2c6.7-0.6,15.9-3.7,23.3-8.6c6.7-4.3,14.1-11.6,17.7-15.3c0.6-1.2,3.7-4.3,6.1-6.7
					c4.3-3.7,8.6-4.3,11-4.3c8.6,0,3.1,4.9-1.8,8c-3.7,2.4-7.3,3.7-9.2,5.5c-3.1,3.1-2.4,6.1-2.4,10.4c0.6,10.4-0.6,15.9-3.7,24.5
					c3.7,0.6,7.3,1.2,6.7,3.7c-0.6,1.2-3.1,0-8.6-0.6c-3.7,7.3-12.9,15.3-22.6,19.6c-10.4,4.9-23.3,7.3-30.6,7.3
					c-4.3,0-11.6-0.6-11.6-7.3c0.6-7.3,12.2-12.2,21.4-15.3c9.2-3.1,17.7-5.5,23.3-6.7c7.3-10.4,14.1-25.1,18.4-30l-0.6-0.6
					c-3.7,3.7-8.6,7.3-13.5,10.4c-8,5.5-16.5,8.6-24.5,9.2c-11,0.6-17.7-1.2-21.4-6.1c-2.4-3.1-4.3-7.3-3.7-11.6
					c-5.5,4.3-15.3,11.6-20.2,15.3c-11,9.2-23.3,21.4-37.9,35.5c-2.4,2.4-5.5,3.7-9.8,3.7c-5.5,0-8-0.6-4.9-6.1
					c3.7-7.3,11.6-18.4,16.5-25.1C389.8,463.3,396.6,454.8,400.9,449.2z M455.3,500c3.1,0,8.6-1.2,13.5-4.3
					c5.5-3.7,12.2-10.4,17.1-17.1c-4.3,1.2-13.5,4.3-19.6,6.7c-9.2,3.7-17.7,8.6-15.9,13.5C450.4,499.4,452.3,500,455.3,500
					L455.3,500z"/>
			</g>
		</g>
	</g>
</g>
</svg>
