<?xml version="1.0" encoding="utf-8"?>
<!-- Generator: Adobe Illustrator 18.1.1, SVG Export Plug-In . SVG Version: 6.00 Build 0)  -->
<svg version="1.1" id="Layer_1" xmlns="http://www.w3.org/2000/svg" xmlns:xlink="http://www.w3.org/1999/xlink" x="0px" y="0px"
	 viewBox="0 0 100 100" enable-background="new 0 0 100 100" xml:space="preserve">
<line fill="none" stroke="#AF8400" stroke-width="0.3516" x1="6.4" y1="88.6" x2="98.1" y2="88.6"/>
<g>
	<path fill="#AF8400" d="M17.9,6.9v36.1c0,2,0.2,3.6,0.6,4.9c0.4,1.3,1,2.6,1.9,4H9.3c0.9-1.5,1.6-3,2-4.4c0.4-1.4,0.6-3.2,0.6-5.4
		v-0.8V14.9H2c1.6-0.5,3.7-1.5,6.3-2.8S14.1,9.1,17.9,6.9z"/>
	<path fill="#AF8400" d="M53.6,11c-1.1-0.2-2.1-0.4-3-0.5c-0.9-0.1-1.7-0.2-2.4-0.2c-5.1,0-9,1.4-11.7,4.3s-4.2,7.3-4.8,13.5
		c1.6-0.8,3.1-1.3,4.7-1.7c1.6-0.4,3.2-0.6,4.9-0.6c3.7,0,6.8,1.2,9.2,3.6c2.4,2.4,3.6,5.5,3.6,9.3c0,4.2-1.4,7.7-4.1,10.3
		c-2.7,2.6-6.2,3.9-10.6,3.9c-4.8,0-8.5-1.6-11-4.9c-2.5-3.3-3.8-8.1-3.8-14.4c0-7.9,1.7-14.3,5.1-19.1c3.4-4.8,7.8-7.2,13.3-7.2
		c2.2,0,4.2,0.3,5.9,0.9C50.6,8.8,52.2,9.7,53.6,11z M31.5,30c-0.1,0.8-0.1,1.6-0.1,2.4c0,0.7,0,1.4,0,2c0,5.6,0.7,9.7,2,12.3
		s3.5,3.8,6.4,3.8c2.4,0,4.3-0.9,5.6-2.8c1.3-1.8,1.9-4.5,1.9-8c0-3.5-0.8-6.2-2.5-7.9c-1.6-1.8-4.1-2.6-7.4-2.6
		c-0.8,0-1.7,0.1-2.7,0.2C33.7,29.4,32.6,29.7,31.5,30z"/>
	<path fill="#AF8400" d="M58.9,29.7c0-7.1,1.4-12.6,4.1-16.6c2.8-4,6.6-6,11.5-6c4.5,0,8,2,10.5,6c2.5,4,3.8,9.6,3.8,16.9
		c0,7.2-1.4,12.9-4.1,16.9s-6.5,6-11.4,6c-4.7,0-8.3-2-10.7-6C60.1,43,58.9,37.3,58.9,29.7z M73.8,10.2c-2.8,0-4.8,1.7-6.2,5
		s-2,8.5-2,15.4c0,6.7,0.6,11.6,1.9,14.8c1.3,3.2,3.3,4.7,5.9,4.7c2.8,0,4.9-1.6,6.3-4.9C81.3,42,82,37.2,82,31
		c0-7.4-0.6-12.7-1.9-15.9C78.8,11.8,76.7,10.2,73.8,10.2z"/>
</g>
<g>
	<path fill="#AF8400" d="M25.9,75.5v5.3c0,0.3,0,0.5,0.1,0.7c0.1,0.2,0.2,0.4,0.3,0.6h-1.6c0.1-0.2,0.2-0.4,0.3-0.6
		c0.1-0.2,0.1-0.5,0.1-0.8v-0.1v-3.9h-1.5c0.2-0.1,0.5-0.2,0.9-0.4C24.9,76,25.3,75.8,25.9,75.5z"/>
	<path fill="#AF8400" d="M32,78.4c0.6,0.3,1,0.6,1.2,0.9c0.2,0.3,0.3,0.6,0.3,1c0,0.6-0.2,1-0.6,1.3c-0.4,0.3-0.9,0.5-1.6,0.5
		c-0.6,0-1-0.2-1.4-0.5c-0.4-0.3-0.5-0.7-0.5-1.2c0-0.4,0.1-0.7,0.4-1c0.3-0.3,0.6-0.5,1.1-0.7c-0.4-0.2-0.7-0.5-0.9-0.7
		c-0.2-0.3-0.3-0.6-0.3-1c0-0.5,0.2-0.9,0.5-1.2c0.3-0.3,0.8-0.4,1.3-0.4c0.5,0,1,0.1,1.3,0.4c0.3,0.2,0.5,0.6,0.5,1
		c0,0.3-0.1,0.6-0.3,0.9C32.7,78.1,32.4,78.3,32,78.4z M31.2,78.9c-0.3,0.2-0.6,0.5-0.7,0.7c-0.2,0.3-0.2,0.5-0.2,0.8
		c0,0.4,0.1,0.7,0.3,1c0.2,0.2,0.5,0.4,0.9,0.4c0.4,0,0.7-0.1,0.9-0.3c0.2-0.2,0.4-0.5,0.4-0.9c0-0.3-0.1-0.5-0.3-0.8
		C32.3,79.6,31.8,79.3,31.2,78.9z M31.8,78.3c0.2-0.2,0.4-0.4,0.5-0.6c0.1-0.2,0.2-0.5,0.2-0.7c0-0.3-0.1-0.6-0.3-0.8
		c-0.2-0.2-0.4-0.3-0.7-0.3c-0.3,0-0.6,0.1-0.7,0.3c-0.2,0.2-0.3,0.4-0.3,0.7c0,0.3,0.1,0.5,0.3,0.8C31,77.9,31.3,78.1,31.8,78.3z"
		/>
	<path fill="#AF8400" d="M36.8,75.7h3.4v0.8h-3v1.8c0.2-0.1,0.4-0.1,0.6-0.1c0.2,0,0.4-0.1,0.6-0.1c0.6,0,1.1,0.2,1.5,0.5
		c0.4,0.4,0.6,0.8,0.6,1.4c0,0.7-0.2,1.2-0.6,1.6c-0.4,0.4-1,0.6-1.8,0.6c-0.2,0-0.5,0-0.7,0c-0.2,0-0.5-0.1-0.7-0.1v-1.2l1,0.8
		c0.1,0.1,0.2,0.1,0.3,0.2c0.1,0,0.2,0.1,0.3,0.1c0.4,0,0.7-0.2,1-0.5c0.3-0.3,0.4-0.7,0.4-1.2c0-0.5-0.1-0.9-0.4-1.2
		c-0.3-0.3-0.7-0.4-1.2-0.4c-0.1,0-0.2,0-0.4,0s-0.4,0.1-0.7,0.1V75.7z"/>
	<path fill="#AF8400" d="M43.8,75.7h3.4v0.8h-3v1.8c0.2-0.1,0.4-0.1,0.6-0.1c0.2,0,0.4-0.1,0.6-0.1c0.6,0,1.1,0.2,1.5,0.5
		c0.4,0.4,0.6,0.8,0.6,1.4c0,0.7-0.2,1.2-0.6,1.6c-0.4,0.4-1,0.6-1.8,0.6c-0.2,0-0.5,0-0.7,0c-0.2,0-0.5-0.1-0.7-0.1v-1.2l1,0.8
		c0.1,0.1,0.2,0.1,0.3,0.2c0.1,0,0.2,0.1,0.3,0.1c0.4,0,0.7-0.2,1-0.5c0.3-0.3,0.4-0.7,0.4-1.2c0-0.5-0.1-0.9-0.4-1.2
		c-0.3-0.3-0.7-0.4-1.2-0.4c-0.1,0-0.2,0-0.4,0s-0.4,0.1-0.7,0.1V75.7z"/>
</g>
<g>
	<path fill="#AF8400" d="M52.4,79.5h4.9v0.6h-4.9V79.5z"/>
</g>
<g>
	<path fill="#AF8400" d="M62.5,81.3h2c0.2,0,0.3-0.1,0.5-0.2c0.2-0.1,0.4-0.3,0.6-0.5L65.4,82h-4.1c1.1-1.2,1.9-2.1,2.4-2.8
		c0.5-0.7,0.7-1.3,0.7-1.9c0-0.4-0.1-0.8-0.3-1c-0.2-0.3-0.5-0.4-0.8-0.4c-0.1,0-0.2,0-0.3,0.1c-0.1,0-0.2,0.1-0.3,0.2l-0.9,0.7
		v-1.2c0.3-0.1,0.6-0.1,0.9-0.2c0.3,0,0.6-0.1,0.8-0.1c0.6,0,1.1,0.1,1.5,0.4c0.4,0.3,0.5,0.7,0.5,1.2c0,0.5-0.2,1-0.6,1.6
		C64.3,79.4,63.5,80.3,62.5,81.3z"/>
	<path fill="#AF8400" d="M67.2,78.8c0-1,0.2-1.8,0.6-2.4c0.4-0.6,1-0.9,1.7-0.9c0.7,0,1.2,0.3,1.5,0.9c0.4,0.6,0.5,1.4,0.5,2.5
		c0,1.1-0.2,1.9-0.6,2.5c-0.4,0.6-1,0.9-1.7,0.9c-0.7,0-1.2-0.3-1.6-0.9C67.4,80.7,67.2,79.9,67.2,78.8z M69.4,75.9
		c-0.4,0-0.7,0.2-0.9,0.7c-0.2,0.5-0.3,1.2-0.3,2.2c0,1,0.1,1.7,0.3,2.2c0.2,0.5,0.5,0.7,0.9,0.7c0.4,0,0.7-0.2,0.9-0.7
		c0.2-0.5,0.3-1.2,0.3-2.1c0-1.1-0.1-1.8-0.3-2.3C70.1,76.2,69.8,75.9,69.4,75.9z"/>
	<path fill="#AF8400" d="M75.6,75.5v5.3c0,0.3,0,0.5,0.1,0.7c0.1,0.2,0.2,0.4,0.3,0.6h-1.6c0.1-0.2,0.2-0.4,0.3-0.6
		c0.1-0.2,0.1-0.5,0.1-0.8v-0.1v-3.9h-1.5c0.2-0.1,0.5-0.2,0.9-0.4C74.6,76,75,75.8,75.6,75.5z"/>
	<path fill="#AF8400" d="M79.2,75.7h3.4v0.8h-3v1.8c0.2-0.1,0.4-0.1,0.6-0.1c0.2,0,0.4-0.1,0.6-0.1c0.6,0,1.1,0.2,1.5,0.5
		c0.4,0.4,0.6,0.8,0.6,1.4c0,0.7-0.2,1.2-0.6,1.6c-0.4,0.4-1,0.6-1.8,0.6c-0.2,0-0.5,0-0.7,0c-0.2,0-0.5-0.1-0.7-0.1v-1.2l1,0.8
		c0.1,0.1,0.2,0.1,0.3,0.2c0.1,0,0.2,0.1,0.3,0.1c0.4,0,0.7-0.2,1-0.5c0.3-0.3,0.4-0.7,0.4-1.2c0-0.5-0.1-0.9-0.4-1.2
		c-0.3-0.3-0.7-0.4-1.2-0.4c-0.1,0-0.2,0-0.4,0c-0.2,0-0.4,0.1-0.7,0.1V75.7z"/>
</g>
<line fill="none" stroke="#AF8400" stroke-width="0.3516" x1="20.2" y1="70.1" x2="98.1" y2="70.1"/>
<g>
	<path fill="#AF8400" d="M12.4,65.7c0.2,0.2,0.8,0.1,1.4-0.2c1.4-0.7,2.7-1.7,4.6-3.2c3-2.3,4.7-3.8,6.7-5.4
		c0.5-0.4,0.9-0.7,1.8-0.7c1.1,0,1.5,0.1,0.9,0.9c-1,1.3-2.4,3.2-3.7,4.8c-1.1,1.5-3.5,4.6-8.2,11c-5.4,7.4-7.2,9.1-11,15.8
		c-0.4,0.7-0.5,1.1-0.3,1.2c0.2,0.1,0.6-0.1,0.9-0.5c0.6-0.7,2.8-3.8,4.5-6.3c1.4-2,3.8-5.4,7-9.5c2.5-3.2,5.3-6.4,7.9-9
		c0.9-0.9,3-2.8,3.8-3.6c0.2-0.2,0.7-0.6,0.9-0.4c0.1,0.2-0.2,0.5-0.7,1c-0.8,0.7-2.1,2-3.6,3.5c-2.4,2.4-5.3,5.8-7.8,9
		c-2.9,3.8-5.4,7.4-7.4,10.1c-2,2.8-3.7,5.4-5.3,6.8c-0.5,0.5-1.2,0.9-1.8,0.8C2.5,91.9,2,91.4,2,90.6c0-1.1,1.4-3.3,2.5-5.2
		c2.2-3.5,4-6.1,8.4-12.1c3-4.1,5.9-8.2,9.7-13.3l-0.1-0.1c-1.2,1.1-3.4,2.7-5,4c-2.5,1.9-4.8,3.4-6.6,3.4c-1.3,0-2-0.7-2-1.8
		C9,64.7,9.3,63.9,10,63c1-1.4,2.7-3.3,4.4-5c1.3-1.2,1.7-1.5,2.8-1.5c1.3,0,1.4,0.2,0.7,1c-0.8,0.9-2,2.4-3.2,3.8
		c-1.1,1.3-1.9,2.5-2.3,3.3C12.2,65.1,12.2,65.5,12.4,65.7z M38.2,64.2c1.2-0.8,2.6-1.9,3.8-3c0.4-0.3,0.6-0.4,0.7-0.2
		c0.1,0.2-0.1,0.5-0.5,0.8c-0.8,0.7-2.8,2.4-3.9,3.1c-2.6,1.7-4.9,2.5-7,2.5c-2.3,0-3.3-0.9-3.3-2.5c0.1-1.2,0.6-2.4,1.9-3.8
		L29.8,61c-0.2,0.2-0.9,0.8-1.2,1.1c-0.3,0.2-0.5,0.3-0.6,0.2c-0.1-0.2,0.1-0.4,0.4-0.7c0.8-0.7,1.4-1.2,2.3-1.9
		c0.7-0.5,1.9-1.2,3-1.9c1.8-0.9,3.7-1.7,5.3-1.7H39c1.4,0,1.9,0.9,1.8,1.7c-0.1,1.6-2.1,2.8-4,3.8c-1.8,0.9-3.9,1.6-5.3,2
		c-0.2,0.5-0.4,1.1-0.4,1.4c0,0.9,0.5,1.4,1.4,1.4C33.4,66.5,35.5,66,38.2,64.2z M36.1,61.1c1.5-1.1,2.5-2.4,2.5-3.2
		c0.1-0.6-0.2-0.9-0.7-0.9c-0.6,0-1.5,0.6-2.7,1.8c-1,0.9-2.5,2.9-3.3,4.1C33.1,62.6,34.8,62,36.1,61.1z M57.7,56.3
		c1.3-0.1,1.4,0.2,0.8,1c-0.8,0.9-2.2,2.5-3.5,4.1c-0.8,1-1.6,2-2.2,3c-0.4,0.7-0.4,1.2-0.2,1.4c0.3,0.2,0.9,0,1.4-0.2
		c0.6-0.3,1.8-1.1,2.8-1.9c1.3-1.1,2.3-1.9,3-2.5c0.4-0.3,0.7-0.6,0.9-0.4c0.2,0.2-0.1,0.5-0.8,1.1c-0.8,0.7-2.3,2-3.5,3
		c-1.2,1-3.3,2.5-5.3,2.5c-1.2,0-1.7-0.6-1.8-1.3c-0.1-0.7,0.3-1.5,0.9-2.2l-0.1-0.1c-1.6,1.4-4.5,3.5-6.8,3.6
		c-1.4,0.1-2.8-0.5-2.5-2.5c0.1-0.9,0.6-1.9,1.7-3.2l-0.1-0.1c-0.2,0.2-0.4,0.4-0.8,0.7c-0.2,0.2-0.4,0.3-0.6,0.2
		c-0.1-0.2,0.2-0.6,0.9-1.2c0.2-0.2,1.2-1.1,1.9-1.5c0.6-0.4,1.7-1.1,2.8-1.7c2.4-1.2,4.6-2,6.2-1.7c1.2,0.2,1.7,1.3,1.3,2.4
		C55.6,57.1,56.7,56.3,57.7,56.3z M46.9,60.8c-2.5,2.5-3.6,4.1-3.5,4.9c0.1,0.4,0.4,0.6,0.8,0.6c1.2,0,3.5-1.4,5.2-2.9
		c2-1.7,4.2-4.4,4.3-5.4c0.1-0.8-0.4-1.1-1.1-1.1C51.4,56.9,49.1,58.6,46.9,60.8z M65.5,58.7c0.4-0.6,0.6-0.9,0.4-1.1
		c-0.2-0.2-0.6-0.1-0.9,0.1c-0.7,0.4-1.7,1.1-2.4,1.7c-0.8,0.7-1.8,1.5-2.7,2.4c-0.6,0.6-0.9,0.7-1.1,0.6c-0.1-0.2,0.2-0.5,0.9-1.2
		c0.7-0.7,2.1-2,3.2-2.8c1.7-1.3,2.9-2,4.2-2c1.2,0,1.5,0.7,1.5,1.4c0,0.7-0.5,1.5-1.3,2.7c-0.5,0.7-1.4,1.8-1.9,2.5l0.1,0.1
		c0.7-0.7,2.4-2.3,3.8-3.5c1-0.8,1.8-1.4,2.8-2.1c0.2-0.6,1-1.1,1.8-1.2c0.5-0.1,1.2,0.1,1.4,0.3c0.2,0.2,0.2,0.7-0.6,1.3
		c-0.5,0.4-1.1,0.7-1.2,1.2c-0.1,1.2,1.1,1.6,2.7,1.5c1.1-0.1,2.6-0.6,3.8-1.4c1.1-0.7,2.3-1.9,2.9-2.5c0.1-0.2,0.6-0.7,1-1.1
		c0.7-0.6,1.4-0.7,1.8-0.7c1.4,0,0.5,0.8-0.3,1.3c-0.6,0.4-1.2,0.6-1.5,0.9c-0.5,0.5-0.4,1-0.4,1.7c0.1,1.7-0.1,2.6-0.6,4
		c0.6,0.1,1.2,0.2,1.1,0.6c-0.1,0.2-0.5,0-1.4-0.1c-0.6,1.2-2.1,2.5-3.7,3.2c-1.7,0.8-3.8,1.2-5,1.2c-0.7,0-1.9-0.1-1.9-1.2
		c0.1-1.2,2-2,3.5-2.5c1.5-0.5,2.9-0.9,3.8-1.1c1.2-1.7,2.3-4.1,3-4.9l-0.1-0.1c-0.6,0.6-1.4,1.2-2.2,1.7c-1.3,0.9-2.7,1.4-4,1.5
		c-1.8,0.1-2.9-0.2-3.5-1c-0.4-0.5-0.7-1.2-0.6-1.9c-0.9,0.7-2.5,1.9-3.3,2.5c-1.8,1.5-3.8,3.5-6.2,5.8c-0.4,0.4-0.9,0.6-1.6,0.6
		c-0.9,0-1.3-0.1-0.8-1c0.6-1.2,1.9-3,2.7-4.1C63.7,61,64.8,59.6,65.5,58.7z M74.4,67c0.5,0,1.4-0.2,2.2-0.7c0.9-0.6,2-1.7,2.8-2.8
		c-0.7,0.2-2.2,0.7-3.2,1.1c-1.5,0.6-2.9,1.4-2.6,2.2C73.6,66.9,73.9,67,74.4,67L74.4,67z"/>
</g>
</svg>
